<svg xmlns="http://www.w3.org/2000/svg" viewBox="0 0 447.19 323.27"><defs><style>.cls-1{fill:#262b63;}.cls-2{fill:#fff;}.cls-3{fill:#dfa726;}.cls-4{fill:#d62326;}.cls-5{fill:#ce0a21;}</style></defs><g id="Layer_2" data-name="Layer 2"><g id="Layer_1-2" data-name="Layer 1"><polygon class="cls-1" points="62.5 0 224.13 161.63 447.19 161.63 447.19 0 62.5 0"/><path id="rect1960" class="cls-2" d="M0,0V323.27H62.5L224.13,161.63,62.5,0Z"/><path id="path8227" class="cls-3" d="M98.72,200.34,73.77,181,48.88,200.43,59.61,170.7,33.4,153.05l31.59,1,8.69-30.38L82.47,154l31.58-1.12L87.9,170.66Z"/><path id="path4650" class="cls-2" d="M333.72,135.56c-2.22-2.18-3.36-4.26-3.16-5.79,0-.32,0-.58-.05-.58a5.51,5.51,0,0,0-.91.43,2.89,2.89,0,0,1-2.41.48c-1.18-.37-2.21-1.93-2.86-4.33l-.27-1,1.59.1c3.51.2,5.53-1.07,6-3.76l.11-.67h-1.22c-1.35,0-1.88-.26-2.41-1.18a1.77,1.77,0,0,1,0-2,2.36,2.36,0,0,1,2.33-1.16c.71,0,.95-.06.95-.25,0-.51-1.26-2-2.36-2.88a8.7,8.7,0,0,0-5.23-1.9c-1.68,0-2.45.28-2.81,1.08a7.5,7.5,0,0,0,0,3.88l.28.92-.71.2a5.83,5.83,0,0,1-6.51-2,11.57,11.57,0,0,1-2.69-8.3c.19-4.34,2.29-7.24,5.77-8,2.42-.51,6.13.55,8.57,2.46a20,20,0,0,1,5.28,7.61c.7,1.59,1.15,2.16,1.15,1.44,0-.16-.42-1.79-1-3.62a98,98,0,0,1-2.43-10.48c-1.13-8.29.44-14.7,5.37-20.92l1.09-1.25c5.62,5.63,7.95,14.11,6.66,22.44a87.74,87.74,0,0,1-2.22,9.5c-.52,1.84-.94,3.46-.94,3.62,0,.6.47.24,1-.74a29.94,29.94,0,0,1,4.2-6.3c2.62-3,4.16-3.82,7.05-3.84a7.66,7.66,0,0,1,6.25,2.56,8.72,8.72,0,0,1,2.2,6.11c0,3.64-1.74,7.14-4.34,8.72a7.12,7.12,0,0,1-4.12,1l-.86-.11v-1.83a5.26,5.26,0,0,0-.47-2.89,2.46,2.46,0,0,0-2.82-1.75c-1.36,0-2.48.51-4.39,1.87-1.47,1-3.35,2.9-3.35,3.3,0,.2.27.25,1.19.25,1.74,0,2.73.76,2.73,2.1s-.88,2.19-2.73,2.19c-1.15,0-1.19,0-1.19.43A7.2,7.2,0,0,0,341,124a5.47,5.47,0,0,0,3.91,1.32,6.92,6.92,0,0,1,1.53.1,13.28,13.28,0,0,1-1.05,2.73c-.94,1.86-2.28,2.72-3.56,2.3a7.65,7.65,0,0,1-1.32-.65,4.83,4.83,0,0,0-.8-.43,2,2,0,0,0-.19.89,8.93,8.93,0,0,1-2.55,5,9.24,9.24,0,0,1-1.66,1.65,8.72,8.72,0,0,1-1.56-1.32Z"/><path id="path5537" class="cls-2" d="M387.63,84.88c-2.22-2.17-3.36-4.25-3.16-5.78,0-.32,0-.58-.05-.58a5.51,5.51,0,0,0-.91.43,2.91,2.91,0,0,1-2.42.48c-1.17-.37-2.2-1.93-2.85-4.33l-.27-1,1.59.1c3.51.2,5.53-1.07,5.95-3.76l.11-.67H384.4c-1.35,0-1.88-.26-2.41-1.18a1.77,1.77,0,0,1,0-2,2.36,2.36,0,0,1,2.33-1.16c.71,0,1-.06,1-.25,0-.51-1.26-2-2.36-2.88a8.77,8.77,0,0,0-5.23-1.91c-1.68,0-2.45.29-2.81,1.09a7.5,7.5,0,0,0,0,3.88l.28.92-.71.2a5.82,5.82,0,0,1-6.51-2,11.49,11.49,0,0,1-2.69-8.29c.19-4.34,2.29-7.24,5.77-8,2.42-.5,6.13.56,8.57,2.47a19.9,19.9,0,0,1,5.28,7.61c.69,1.59,1.15,2.16,1.15,1.44,0-.16-.42-1.79-.95-3.62a98.37,98.37,0,0,1-2.44-10.48c-1.13-8.29.45-14.7,5.38-20.92l1.09-1.25c5.62,5.63,8,14.11,6.66,22.44a87.74,87.74,0,0,1-2.22,9.5c-.52,1.83-.94,3.46-.94,3.62,0,.6.47.24,1-.74a29.56,29.56,0,0,1,4.2-6.3c2.62-3,4.16-3.82,7.05-3.84a7.68,7.68,0,0,1,6.25,2.55,8.76,8.76,0,0,1,2.2,6.12c0,3.64-1.74,7.14-4.34,8.72a7.12,7.12,0,0,1-4.12,1l-.86-.11V64.69a5.26,5.26,0,0,0-.47-2.89,2.46,2.46,0,0,0-2.82-1.75c-1.36,0-2.48.51-4.39,1.87-1.47,1-3.35,2.9-3.35,3.3,0,.2.27.25,1.18.25,1.75,0,2.74.76,2.74,2.1s-.88,2.19-2.73,2.19c-1.15,0-1.19,0-1.19.43a7.2,7.2,0,0,0,1.92,3.14,5.47,5.47,0,0,0,3.91,1.32,6.26,6.26,0,0,1,1.53.1,13.28,13.28,0,0,1-1.05,2.73c-.95,1.86-2.29,2.72-3.56,2.29a6.91,6.91,0,0,1-1.32-.64,4.11,4.11,0,0,0-.8-.43c-.07,0-.15.4-.19.89a8.93,8.93,0,0,1-2.55,5,9.36,9.36,0,0,1-1.66,1.64,7.85,7.85,0,0,1-1.56-1.32Z"/><polygon class="cls-4" points="224.13 161.63 62.5 323.27 447.19 323.27 447.19 161.63 224.13 161.63"/><path id="path5539" class="cls-2" d="M279.84,84.88c-2.22-2.17-3.36-4.25-3.16-5.78,0-.32,0-.58,0-.58a5.08,5.08,0,0,0-.92.43,2.89,2.89,0,0,1-2.41.48c-1.18-.37-2.21-1.93-2.85-4.33l-.27-1,1.58.1c3.51.2,5.53-1.07,6-3.76l.11-.67h-1.22c-1.35,0-1.88-.26-2.41-1.18a1.79,1.79,0,0,1,0-2,2.36,2.36,0,0,1,2.33-1.16c.72,0,.95-.06.95-.25,0-.51-1.26-2-2.36-2.88a8.77,8.77,0,0,0-5.23-1.91c-1.67,0-2.45.29-2.81,1.09a7.41,7.41,0,0,0,0,3.88l.27.92-.71.2a5.82,5.82,0,0,1-6.51-2,11.53,11.53,0,0,1-2.69-8.29c.19-4.34,2.29-7.24,5.77-8,2.42-.5,6.13.56,8.57,2.47a20,20,0,0,1,5.29,7.61c.69,1.59,1.15,2.16,1.15,1.44,0-.16-.43-1.79-1-3.62a98.37,98.37,0,0,1-2.44-10.48c-1.13-8.29.44-14.7,5.38-20.92l1.09-1.25C287,29.18,289.31,37.66,288,46a90.55,90.55,0,0,1-2.23,9.5c-.52,1.83-.94,3.46-.94,3.62,0,.6.47.24,1-.74a29.94,29.94,0,0,1,4.2-6.3c2.62-3,4.16-3.82,7.05-3.84a7.68,7.68,0,0,1,6.25,2.55,8.76,8.76,0,0,1,2.2,6.12c0,3.64-1.74,7.14-4.34,8.72a7.11,7.11,0,0,1-4.11,1l-.87-.11V64.69a5.36,5.36,0,0,0-.46-2.89,2.47,2.47,0,0,0-2.83-1.75c-1.35,0-2.48.51-4.38,1.87-1.48,1-3.36,2.9-3.36,3.3,0,.2.27.25,1.19.25,1.74,0,2.73.76,2.73,2.1s-.88,2.19-2.73,2.19c-1.15,0-1.19,0-1.19.43a7.2,7.2,0,0,0,1.92,3.14A5.48,5.48,0,0,0,291,74.65a6.15,6.15,0,0,1,1.52.1,13.28,13.28,0,0,1-1,2.73c-.94,1.86-2.28,2.72-3.56,2.29a6.91,6.91,0,0,1-1.32-.64,3.59,3.59,0,0,0-.8-.43,2,2,0,0,0-.19.89,8.93,8.93,0,0,1-2.55,5,9,9,0,0,1-1.66,1.64,7.85,7.85,0,0,1-1.56-1.32Z"/><path id="rect6490" class="cls-3" d="M343,182.63H348v8.67H343Zm-20.24,8.67H348V299.71h-25.3Zm-41.56,47H389.6v61.43H281.18Zm36.5-47H353.1V200H317.68Zm5.06-8.67h5.06v8.67h-5.06Zm10.12,0h5.06v8.67h-5.06Zm-56.74,47h30.36v8.67H276.12Zm5.06-8.68h5.06v8.68h-5.06Zm10.12,0h5.06v8.68H291.3Zm10.12,0h5.06v8.68h-5.06Zm62.88,8.68h30.35v8.67H364.3Zm0-8.68h5.06v8.68H364.3Zm10.12,0h5.06v8.68h-5.06Zm10.12,0h5.06v8.68h-5.06ZM276.12,291H394.65v8.67H276.12Z"/><path id="rect7408" class="cls-5" d="M322,270.8h26.74v28.91H322Zm26.74,1.09a13.37,13.37,0,1,1-13.37-13.37A13.38,13.38,0,0,1,348.76,271.89Z"/></g></g></svg>