<svg xmlns="http://www.w3.org/2000/svg" viewBox="0 0 445.26 323.84"><defs><style>.cls-1{fill:#262b63;}</style></defs><g id="Layer_2" data-name="Layer 2"><g id="Layer_1-2" data-name="Layer 1"><path id="path4650" class="cls-1" d="M217.81,320.06c-6.34-6.21-9.59-12.16-9-16.52.11-.91.06-1.66-.13-1.66A16,16,0,0,0,206,303.1c-3.12,1.67-4.8,2-6.89,1.36-3.35-1-6.31-5.51-8.14-12.35l-.78-2.88,4.53.26c10,.58,15.8-3.05,17-10.72l.3-1.92h-3.49c-3.85,0-5.36-.75-6.88-3.39a5.08,5.08,0,0,1,.05-5.56c1.22-2.25,3.34-3.31,6.66-3.31,2.05,0,2.73-.18,2.73-.72,0-1.46-3.6-5.86-6.75-8.25a25.16,25.16,0,0,0-14.95-5.43c-4.79,0-7,.83-8,3.1-.95,2.09-.89,7.78.11,11.1l.8,2.61-2,.58c-7.46,2.1-13.13.4-18.59-5.58s-8.11-14.41-7.7-23.72c.55-12.39,6.55-20.67,16.48-22.75,6.93-1.45,17.52,1.6,24.5,7.05,5.45,4.26,10.92,12.13,15.1,21.74,2,4.55,3.29,6.19,3.29,4.11,0-.46-1.22-5.12-2.71-10.35a278.24,278.24,0,0,1-7-29.94c-3.23-23.68,1.26-42,15.37-59.77l3.11-3.57c16.05,16.08,22.7,40.32,19,64.11a254.22,254.22,0,0,1-6.37,27.16c-1.47,5.24-2.68,9.89-2.68,10.34,0,1.72,1.34.68,2.74-2.13a86.23,86.23,0,0,1,12-18c7.49-8.53,11.89-10.92,20.15-10.95,7.79,0,13.32,2.22,17.85,7.29,4.24,4.73,6.29,10.42,6.3,17.47,0,10.4-5,20.4-12.41,24.91-3.51,2.13-8.44,3.35-11.76,2.91l-2.48-.33v-5.24c0-4.79-.11-5.5-1.32-8.24-1.76-4-3.6-5.12-8.08-5-3.87.09-7.08,1.46-12.53,5.35-4.2,3-9.57,8.29-9.57,9.43,0,.56.77.72,3.38.72,5,0,7.8,2.16,7.8,6,0,4.24-2.51,6.27-7.78,6.27-3.29,0-3.4,0-3.4,1.22,0,1.74,3.29,7.14,5.48,9,3.23,2.72,6.27,3.74,11.18,3.78a17.8,17.8,0,0,1,4.36.29c0,.81-1.72,5.29-3,7.8-2.7,5.31-6.53,7.77-10.18,6.55a21.27,21.27,0,0,1-3.76-1.84,12.33,12.33,0,0,0-2.29-1.23c-.19,0-.43,1.15-.55,2.54-.37,4.4-2.69,8.91-7.29,14.19-2.26,2.6-4.4,4.72-4.74,4.72s-2.35-1.71-4.46-3.78Z"/><path id="path5537" class="cls-1" d="M371.87,175.26c-6.34-6.21-9.6-12.16-9-16.52.12-.91.06-1.66-.13-1.66a15.63,15.63,0,0,0-2.62,1.22c-3.13,1.67-4.81,2-6.89,1.36-3.36-1-6.31-5.51-8.15-12.35l-.77-2.88,4.53.26c10,.58,15.79-3.05,17-10.72l.31-1.92h-3.49c-3.85,0-5.36-.75-6.89-3.39a5.08,5.08,0,0,1,.05-5.56c1.22-2.25,3.35-3.31,6.66-3.31,2.05,0,2.73-.18,2.73-.72,0-1.46-3.6-5.86-6.74-8.24a25.08,25.08,0,0,0-15-5.43c-4.78,0-7,.82-8,3.09-1,2.09-.89,7.78.12,11.1l.79,2.62-2,.57c-7.45,2.11-13.13.4-18.59-5.58s-8.1-14.41-7.69-23.72c.55-12.39,6.54-20.67,16.48-22.75,6.93-1.45,17.52,1.6,24.49,7C354.49,82,360,89.91,364.14,99.53c2,4.54,3.29,6.18,3.29,4.1,0-.46-1.23-5.11-2.72-10.34a278.35,278.35,0,0,1-7-29.95c-3.23-23.68,1.27-42,15.37-59.76L376.22,0c16,16.08,22.71,40.32,19,64.11a254.22,254.22,0,0,1-6.37,27.16c-1.47,5.24-2.67,9.89-2.67,10.34,0,1.73,1.34.69,2.74-2.12a86.4,86.4,0,0,1,12-18c7.5-8.53,11.9-10.92,20.15-11,7.8,0,13.32,2.22,17.86,7.29,4.23,4.73,6.28,10.42,6.29,17.47,0,10.4-5,20.41-12.4,24.91-3.52,2.13-8.44,3.35-11.77,2.91l-2.48-.33v-5.24c0-4.78-.11-5.49-1.32-8.24-1.75-4-3.6-5.12-8.08-5-3.87.09-7.07,1.47-12.52,5.36-4.21,3-9.58,8.28-9.58,9.42,0,.56.77.72,3.38.72,5,0,7.81,2.17,7.81,6,0,4.25-2.52,6.27-7.79,6.27-3.28,0-3.4,0-3.4,1.22,0,1.74,3.3,7.14,5.48,9,3.23,2.72,6.28,3.75,11.19,3.78a17.87,17.87,0,0,1,4.36.29c0,.81-1.73,5.29-3,7.8-2.7,5.31-6.53,7.77-10.17,6.55a21.62,21.62,0,0,1-3.77-1.83,11.41,11.41,0,0,0-2.29-1.24,5.53,5.53,0,0,0-.55,2.55c-.37,4.39-2.68,8.9-7.29,14.18-2.26,2.6-4.39,4.72-4.73,4.72s-2.35-1.71-4.46-3.78Z"/><path id="path5539" class="cls-1" d="M63.85,175.26c-6.34-6.21-9.59-12.16-9-16.52.12-.91.06-1.66-.13-1.66a15.63,15.63,0,0,0-2.62,1.22c-3.13,1.67-4.8,2-6.89,1.36-3.36-1-6.31-5.51-8.15-12.35l-.77-2.88,4.53.26c10,.58,15.79-3.05,17-10.72l.31-1.92H54.62c-3.85,0-5.36-.75-6.89-3.39a5.1,5.1,0,0,1,.05-5.56c1.22-2.25,3.35-3.31,6.66-3.31,2.05,0,2.73-.18,2.73-.72,0-1.46-3.6-5.86-6.74-8.24a25.08,25.08,0,0,0-15-5.43c-4.78,0-7,.82-8,3.09-.95,2.09-.88,7.78.12,11.1l.79,2.62-2,.57c-7.46,2.11-13.14.4-18.59-5.58S-.37,102.79,0,93.48C.59,81.09,6.58,72.81,16.52,70.73c6.93-1.45,17.52,1.6,24.49,7C46.47,82,51.94,89.91,56.12,99.53c2,4.54,3.29,6.18,3.29,4.1,0-.46-1.22-5.11-2.72-10.34a278.35,278.35,0,0,1-7-29.95C46.49,39.66,51,21.33,65.09,3.58L68.21,0c16.05,16.08,22.7,40.32,19,64.11a251.46,251.46,0,0,1-6.36,27.16c-1.48,5.24-2.68,9.89-2.68,10.34,0,1.73,1.34.69,2.74-2.12a86.4,86.4,0,0,1,12-18c7.5-8.53,11.9-10.92,20.15-11,7.8,0,13.32,2.22,17.86,7.29,4.23,4.73,6.29,10.42,6.3,17.47,0,10.4-5,20.41-12.41,24.91-3.52,2.13-8.44,3.35-11.77,2.91l-2.47-.33v-5.24c0-4.78-.12-5.49-1.33-8.24-1.75-4-3.6-5.12-8.08-5-3.86.09-7.07,1.47-12.52,5.36-4.21,3-9.58,8.28-9.58,9.42,0,.56.77.72,3.38.72,5,0,7.81,2.17,7.81,6,0,4.25-2.52,6.27-7.79,6.27-3.28,0-3.4,0-3.4,1.22,0,1.74,3.3,7.14,5.48,9C87.81,145,90.85,146,95.76,146a17.8,17.8,0,0,1,4.36.29c0,.81-1.73,5.29-3,7.8-2.69,5.31-6.52,7.77-10.17,6.55a22,22,0,0,1-3.77-1.83,11.41,11.41,0,0,0-2.29-1.24,5.53,5.53,0,0,0-.55,2.55c-.37,4.39-2.68,8.9-7.28,14.18-2.27,2.6-4.4,4.72-4.74,4.72s-2.35-1.71-4.46-3.78Z"/></g></g></svg>