<svg xmlns="http://www.w3.org/2000/svg" viewBox="0 0 561.63 193.72"><defs><style>.cls-1{fill:#f9f8e1;}</style></defs><g id="Layer_2" data-name="Layer 2"><g id="Layer_1-2" data-name="Layer 1"><path class="cls-1" d="M73.27,63.8l-27.92.08V62.57l4.27-3q-.87-2.27-1.83-5l-2-5.28c-.75-2-1.54-4.18-2.35-6.51H22.92a49.31,49.31,0,0,0,.7,7.55,24.61,24.61,0,0,0,1.83,6.2,11.75,11.75,0,0,0,3.1,4.23,7.69,7.69,0,0,0,4.58,1.75,1.83,1.83,0,0,1,0,.74.65.65,0,0,0,0,.48h-30V62.49A18.9,18.9,0,0,0,8,59.65a17.3,17.3,0,0,0,3.84-4.58,45,45,0,0,0,3.41-7.24q1.65-4.36,3.62-10.91t4.41-15.54q2.43-9,5.84-21.12L50.76.35l-.09,1.22-5.5,2.79L67.25,59.69l6,2.88ZM42.81,41.19q-2.09-5.49-4.27-11.43c-1.46-4-2.79-7.56-4-10.82s-2.22-6-3-8.16S30.3,7.45,30.25,7.33c-.47-1.51-.8-2.24-1-2.18s-.48.67-.82,1.83q-2.37,8.55-3.93,17.5a96.59,96.59,0,0,0-1.57,16.71Z"/><path class="cls-1" d="M100.68,62.31A8.12,8.12,0,0,0,106,60.17a9.53,9.53,0,0,0,2.79-5.06,17.72,17.72,0,0,0,0-7.11,26.77,26.77,0,0,0-3.1-8.2l.18-.35a2.47,2.47,0,0,1,.26-.44,62.21,62.21,0,0,1,6.19,1.13c2.27.53,4.42,1,6.46,1.58,2.33.64,4.68,1.3,7.07,2a21.79,21.79,0,0,1-1.66,8.16,16.86,16.86,0,0,1-4.67,6.37,21.9,21.9,0,0,1-7.72,4.15,35.81,35.81,0,0,1-10.91,1.48A30.49,30.49,0,0,1,87.11,61a28.38,28.38,0,0,1-9.69-7.64,31.1,31.1,0,0,1-5.59-10.64,36,36,0,0,1-1.52-12,32,32,0,0,1,4-14.57A30.39,30.39,0,0,1,83.7,5.63,30.9,30.9,0,0,1,96.88.57,33.67,33.67,0,0,1,112.2,2a19,19,0,0,1,10.16,7.24,20.63,20.63,0,0,1,3.45,11.52L119,22.69c-1.92.52-4,1-6.24,1.57a60.29,60.29,0,0,1-6.15,1.14,5.71,5.71,0,0,1-.35-.66c-.06-.14-.14-.36-.26-.65A27.79,27.79,0,0,0,108.84,16a17.66,17.66,0,0,0-.09-7,9.71,9.71,0,0,0-2.84-5,8.15,8.15,0,0,0-5.23-2.09,6.82,6.82,0,0,0-5.5,2.27,19.61,19.61,0,0,0-4,6.59,45.41,45.41,0,0,0-2.45,9.51,79,79,0,0,0-.91,11,74.58,74.58,0,0,0,.7,11.52A48.12,48.12,0,0,0,91,52.84a20.89,20.89,0,0,0,4,7A7,7,0,0,0,100.68,62.31Z"/><path class="cls-1" d="M196.24,63.8l-27.93.08V62.57l4.28-3q-.87-2.27-1.83-5-.88-2.28-2-5.28c-.76-2-1.54-4.18-2.36-6.51H145.88a50.6,50.6,0,0,0,.7,7.55,25.46,25.46,0,0,0,1.83,6.2,12,12,0,0,0,3.1,4.23,7.72,7.72,0,0,0,4.58,1.75,1.53,1.53,0,0,1,0,.74.78.78,0,0,0,0,.48h-30V62.49A19.14,19.14,0,0,0,131,59.65a17.3,17.3,0,0,0,3.84-4.58,45.08,45.08,0,0,0,3.4-7.24q1.67-4.36,3.62-10.91t4.41-15.54q2.45-9,5.85-21.12l21.64.09-.08,1.22-5.5,2.79,22.08,55.33,6,2.88ZM165.78,41.19q-2.09-5.49-4.27-11.43t-4-10.82q-1.83-4.89-3-8.16c-.79-2.18-1.21-3.33-1.27-3.45-.46-1.51-.8-2.24-1-2.18s-.48.67-.83,1.83q-2.35,8.55-3.93,17.5a97.59,97.59,0,0,0-1.57,16.71Z"/><path class="cls-1" d="M255.85,30.63a43.45,43.45,0,0,1-1.23,10.3,31.23,31.23,0,0,1-3.88,9.34,26.5,26.5,0,0,1-6.85,7.37,27.25,27.25,0,0,1-10,4.5,51.33,51.33,0,0,1-8.37,1.31q-4.54.34-9.12.39c-3.06,0-6,0-8.86,0s-5.41-.06-7.68,0V62.57c.29-.11.75-.33,1.39-.65s1.34-.63,2.1-.92l2.79-1.22V3.93l-6.28-2.62V.09l2.88,0c1.45,0,3.21,0,5.28,0h6.67q3.58,0,7,.09c2.26.06,4.36.17,6.28.35a42.28,42.28,0,0,1,4.62.61,32.58,32.58,0,0,1,10.35,3.88,25.54,25.54,0,0,1,7.28,6.5,26.63,26.63,0,0,1,4.28,8.69A37.83,37.83,0,0,1,255.85,30.63ZM233,58.65a16.25,16.25,0,0,0,3.49-5.94A52.26,52.26,0,0,0,239,43.37a74.28,74.28,0,0,0,1.14-11.12,63,63,0,0,0-.66-11.35A37.3,37.3,0,0,0,236.6,11,17,17,0,0,0,231.15,4a12.86,12.86,0,0,0-3.67-1.87,6.48,6.48,0,0,0-2.92-.26,3.65,3.65,0,0,0-2.05,1,3.9,3.9,0,0,0-1,1.75,15.8,15.8,0,0,0-.52,4.71v45a15.8,15.8,0,0,0,.52,4.71,3.49,3.49,0,0,0,1.88,2.36,5.62,5.62,0,0,0,3.1.39,10.76,10.76,0,0,0,3.49-1.09A13,13,0,0,0,233,58.65Z"/><path class="cls-1" d="M284.47,63.88h-4c-1.23,0-2.68,0-4.35,0s-3.45,0-5.3,0-3.68,0-5.33,0-3.09,0-4.31,0h-4V62.57l6.38-2.79V4.28l-6.38-2.71V.35h4c1.22,0,2.66,0,4.31,0s3.43,0,5.33,0,3.62,0,5.3,0,3.12,0,4.35,0h4V1.57l-6.11,2.71v55.5l6.11,2.79Z"/><path class="cls-1" d="M357.61,63.8l-27.93.08V62.57l4.28-3q-.88-2.27-1.84-5-.87-2.28-2-5.28t-2.36-6.51H307.25a50.6,50.6,0,0,0,.7,7.55,25,25,0,0,0,1.83,6.2,11.87,11.87,0,0,0,3.1,4.23,7.72,7.72,0,0,0,4.58,1.75,1.53,1.53,0,0,1,0,.74.65.65,0,0,0,0,.48h-30V62.49a19.14,19.14,0,0,0,4.89-2.84,17.68,17.68,0,0,0,3.84-4.58,46,46,0,0,0,3.4-7.24q1.65-4.36,3.62-10.91t4.41-15.54q2.44-9,5.85-21.12l21.64.09L335,1.57l-5.5,2.79,22.08,55.33,6,2.88ZM327.15,41.19q-2.1-5.49-4.28-11.43t-4-10.82c-1.22-3.26-2.23-6-3-8.16s-1.21-3.33-1.27-3.45c-.47-1.51-.8-2.24-1-2.18s-.48.67-.83,1.83q-2.36,8.55-3.93,17.5a96.59,96.59,0,0,0-1.57,16.71Z"/><path class="cls-1" d="M416.86.17a4.78,4.78,0,0,1,0,1.31A6,6,0,0,0,414,4.89a28.44,28.44,0,0,0-1.53,6.85q-.53,4.32-.79,10.34t-.61,13.79c0,.29,0,.91,0,1.87s0,2.13,0,3.5v9.47q0,5.84-.09,13h-2.79L370,15.53c-.29-.29-.56-.36-.79-.21a1.32,1.32,0,0,0-.52.74,2.07,2.07,0,0,0-.22.61,6.46,6.46,0,0,0,0,.92c0,.43,0,1.07,0,1.92s0,2,0,3.53q.18,9.51.83,16a75.59,75.59,0,0,0,1.71,10.6A26.58,26.58,0,0,0,373.36,56a12,12,0,0,0,2.75,3.49,9.68,9.68,0,0,0,3.05,1.75,30.33,30.33,0,0,1,3.14,1.22,2.86,2.86,0,0,1,0,.56,2,2,0,0,0,0,.4v.35h-21v-.66a5.17,5.17,0,0,1,.09-.74,6.49,6.49,0,0,0,2.88-3.67,30.73,30.73,0,0,0,1.44-7.06q.48-4.45.7-10.91t.65-15.1V24.35c0-.7,0-1.57,0-2.62s.05-2.21.05-3.49v-14c-.29-.12-.76-.32-1.4-.61l-1.92-.88c-.75-.35-1.54-.72-2.35-1.13V.44h17.71q7.77,9.85,14,17.8c1.74,2.27,3.49,4.51,5.23,6.72s3.33,4.2,4.76,6,2.62,3.27,3.58,4.49,1.55,2,1.79,2.27c.46.64.78.9,1,.79s.2-1.05.08-2.8q-.34-7.15-.7-12.13c-.23-3.31-.53-6.11-.91-8.37a25.67,25.67,0,0,0-1.44-5.5,10.76,10.76,0,0,0-2.31-3.54,13.12,13.12,0,0,0-3.45-2.44q-2-1-4.89-2.23a.56.56,0,0,1,0-.39,1.91,1.91,0,0,0,0-.39V.17q2.26.09,4.71.09h15.84c.32,0,.47,0,.44,0S416.81.17,416.86.17Z"/><path class="cls-1" d="M54,135.71q10.56,1,16.19,4.84t5.62,11.74a11.25,11.25,0,0,1-1.09,5,13.52,13.52,0,0,1-2.92,3.93,18.87,18.87,0,0,1-4.19,2.92,30.65,30.65,0,0,1-4.89,2,41.91,41.91,0,0,1-7.2,1.57,88.73,88.73,0,0,1-9.2.78q-5,.18-9.6.18H20v-1l6.54-3.23q0-1,.09-1.92c0-.52,0-1.09,0-1.7s.05-1.21.05-1.79V116.77l-6.37-2.71v-1.22h4c1.22,0,2.67,0,4.33,0s3.47,0,5.4,0,3.66,0,5.35,0,3.16,0,4.38,0h4v1.22l-6.11,2.71-.26,24.87a11.89,11.89,0,0,1,3.14-4.71q2.26-2.18,4.88-4.41t5.2-4.62a19.74,19.74,0,0,0,4.06-5.24,13.76,13.76,0,0,0,1.52-6.24,15.88,15.88,0,0,0-2.4-7.77,18.36,18.36,0,0,0-6-6.8,24,24,0,0,0-8.33-3.67,25,25,0,0,0-9.47-.3,26.07,26.07,0,0,0-9.34,3.31,27.09,27.09,0,0,0-7.89,7.16,31.37,31.37,0,0,0-5.24,11.21,28.43,28.43,0,0,0-.92,9.21,31.38,31.38,0,0,0,1.66,8.38,20.92,20.92,0,0,0,3.62,6.5,10.26,10.26,0,0,0,5.06,3.49l-.43.87A25,25,0,0,1,9.3,144a21.35,21.35,0,0,1-6.85-7.68A22.24,22.24,0,0,1,0,126.5a26.77,26.77,0,0,1,1.87-10.43A27.71,27.71,0,0,1,8.65,106a35,35,0,0,1,10-6.59,42.79,42.79,0,0,1,11.87-3.23,50.44,50.44,0,0,1,12.52,0A45.87,45.87,0,0,1,55,99.32a35.87,35.87,0,0,1,10,6.1A27.52,27.52,0,0,1,70.31,112a17.92,17.92,0,0,1,2.44,7.51,11.28,11.28,0,0,1-.79,4.93,12.93,12.93,0,0,1-3.27,4.67A23.39,23.39,0,0,1,62.76,133,34.91,34.91,0,0,1,54,135.71Zm1.94,27q4.68-3.93,4.69-11.18a13,13,0,0,0-1.09-5.23,15.19,15.19,0,0,0-2.78-4.37A13,13,0,0,0,52.93,139a8.31,8.31,0,0,0-4.21-.91,7.07,7.07,0,0,0-4,1.66,10.76,10.76,0,0,0-3.13,4.84V159q0,1.67.09,2.88a8.21,8.21,0,0,0,.35,2,3.8,3.8,0,0,0,2.21,2.79,6.48,6.48,0,0,0,3.61.22A14.94,14.94,0,0,0,52,165.34,22.75,22.75,0,0,0,55.93,162.68Z"/><path class="cls-1" d="M238.41,106.21a6.56,6.56,0,0,0-2.61,3.05,21.21,21.21,0,0,0-1.49,5.42c-.35,2.21-.62,4.87-.83,8s-.42,6.68-.65,10.69c-.18,3.67-.32,7.39-.44,11.17a42.8,42.8,0,0,1-1.57,10.56,20.16,20.16,0,0,1-4.71,8.42q-3.31,3.54-9.86,4.67a25.5,25.5,0,0,1-4.93.4,44.8,44.8,0,0,1-4.85-.35,26.06,26.06,0,0,1-4.4-1,20.43,20.43,0,0,1-3.63-1.53,15.41,15.41,0,0,1-6.67-7.77,40,40,0,0,1-2.62-11.65,112.52,112.52,0,0,1-.26-14.27q.3-7.68.3-15.53V109l-6.37-2.79V105h27.32v1.22L204,109q0,10.74-.17,19.16t-.14,14.75q0,6.33.48,10.78a23.26,23.26,0,0,0,1.66,7.15,8.35,8.35,0,0,0,3.93,4.28,11.53,11.53,0,0,0,6,1.22,13.24,13.24,0,0,0,8.51-3.05,17,17,0,0,0,4.63-7.16,33.47,33.47,0,0,0,1.74-9.69,97.72,97.72,0,0,0-.13-10.56q-.44-7-1.18-11.78a51,51,0,0,0-1.74-7.85,18.32,18.32,0,0,0-2.23-4.8A10.27,10.27,0,0,0,220,107.3c-1-.32-1.9-.68-2.83-1.09V105h21.2Z"/><path class="cls-1" d="M287.29,160.32a10.75,10.75,0,0,0,1.13,4.14,18.1,18.1,0,0,0,2,3.45.41.41,0,0,1,.08.44.39.39,0,0,1-.43.26H243.21V167.3l6.2-2.79.09-22.61-.09-32.81-6.2-2.71v-1.22h29.24q4.1,0,7.64,0t6.15,0h3.84c.23,0,.38.07.43.21a.35.35,0,0,1-.08.4,18.3,18.3,0,0,0-2,3.44,10.84,10.84,0,0,0-1.13,4.15c0,1.57,0,3.1-.05,4.58s0,2.84,0,4.06v4.45h-2.1a48.32,48.32,0,0,0-1.13-5.54,31.41,31.41,0,0,0-2.1-5.76,22.89,22.89,0,0,0-3.14-4.93,10,10,0,0,0-4.27-3.06,9.6,9.6,0,0,0-2.66-.56,10.87,10.87,0,0,0-3,.13,6.9,6.9,0,0,0-2.62,1,3.57,3.57,0,0,0-1.53,2.1c-.11.52-.22,1.15-.3,1.87a23.32,23.32,0,0,0-.13,2.75v23a21.31,21.31,0,0,1,5-6.41,12.14,12.14,0,0,1,5-2.71,4.63,4.63,0,0,1,3.8.61,3.4,3.4,0,0,1,1.22,3.36,53.93,53.93,0,0,0-.31,5.46q0,3.18.13,6.06.09,3.41.35,7h-1.05c-.17-1.05-.4-2.35-.69-3.89a41.28,41.28,0,0,0-1.14-4.54,20.12,20.12,0,0,0-1.74-4,6,6,0,0,0-2.53-2.49,4.27,4.27,0,0,0-3.5.13,13.28,13.28,0,0,0-4.53,3.8v19.37a23.09,23.09,0,0,0,.13,2.75c.08.73.19,1.36.3,1.88a3.52,3.52,0,0,0,1.53,2.09,6.76,6.76,0,0,0,2.62,1,12.7,12.7,0,0,0,3,.18,9,9,0,0,0,2.66-.53,9.93,9.93,0,0,0,4.27-3,22.53,22.53,0,0,0,3.14-5,32.63,32.63,0,0,0,2.1-5.8,48.32,48.32,0,0,0,1.13-5.54h2.1v4.45c0,1.22,0,2.57,0,4.06S287.29,158.75,287.29,160.32Z"/><path class="cls-1" d="M347.33,119.21a10.08,10.08,0,0,1-1.4,6.64,15.22,15.22,0,0,1-4.67,4.45,33.35,33.35,0,0,1-6.63,3.14q-3.7,1.31-7.29,2.79a47.81,47.81,0,0,0-6.63,3.36,13.1,13.1,0,0,0-4.71,4.85l.26,20.07,6,2.62v1.48h-4c-1.22,0-2.66,0-4.32,0s-3.42,0-5.28,0-3.71,0-5.37,0-3.1,0-4.32,0h-4v-1.48l6.37-2.62V112.58c0-.64,0-1.22.08-1.74a18.14,18.14,0,0,1,.09-1.84L295,106.3V105h27c3.32.06,6.44.2,9.38.43a25.66,25.66,0,0,1,7.77,1.75,13,13,0,0,1,5.5,4.23A15.58,15.58,0,0,1,347.33,119.21ZM316,141.38a24.47,24.47,0,0,1,3.75-3.93c1.28-1,2.53-2,3.75-2.83s2.37-1.66,3.45-2.45a16.22,16.22,0,0,0,2.88-2.66,11.86,11.86,0,0,0,2.05-3.58,19.67,19.67,0,0,0,1.05-5.23,13.05,13.05,0,0,0-.79-5.89,15.07,15.07,0,0,0-2.75-4.59,11.89,11.89,0,0,0-3.84-2.92,8.67,8.67,0,0,0-4.05-.92,5.52,5.52,0,0,0-3.89,2.1Q316,110.4,316,114.33Z"/><path class="cls-1" d="M405.45,163.37c.47-.29.83-.26,1.09.09a.76.76,0,0,1,0,1,13.78,13.78,0,0,1-5.85,3.31,22.55,22.55,0,0,1-6.72.62,17.06,17.06,0,0,1-8.59-2.23c-2.19-1.37-3.48-3.77-3.89-7.2a39.94,39.94,0,0,0-2.18-10.34,13.26,13.26,0,0,0-3.18-5.15,3.52,3.52,0,0,0-3.28-1,4,4,0,0,0-2.44,2l.17,20,6.11,2.62v1.48h-4c-1.22,0-2.67,0-4.33,0s-3.44,0-5.32,0-3.73,0-5.39,0-3.11,0-4.34,0h-4v-1.48l6.37-2.62-.09-50.1v-1.74a15.59,15.59,0,0,1,.09-1.75q.09-1,.18-1.83l-6.64-2.79v-1.22h27.23c3.32,0,6.44.2,9.38.43a25.66,25.66,0,0,1,7.77,1.75,12.73,12.73,0,0,1,5.46,4.23,15.84,15.84,0,0,1,2.61,7.81,10.87,10.87,0,0,1-.91,5.76,12.42,12.42,0,0,1-3.32,4.1,21.7,21.7,0,0,1-5,3c-1.9.85-3.87,1.65-5.94,2.4s-4.1,1.55-6.11,2.36a29.86,29.86,0,0,0-5.45,2.88,21.72,21.72,0,0,1,9.29-.09,16.09,16.09,0,0,1,6.42,3.14,17,17,0,0,1,4.19,5.2,46.64,46.64,0,0,1,2.61,5.93q1.05,2.92,1.75,5.41a14.12,14.12,0,0,0,1.48,3.71,2.65,2.65,0,0,0,2.14,1.27A3.37,3.37,0,0,0,405.45,163.37Zm-29.58-56.9a5.52,5.52,0,0,0-3.89,2.1q-1.61,1.92-1.61,5.84v26.8a43.87,43.87,0,0,1,4.19-4c1.34-1.1,2.62-2.08,3.84-2.92s2.34-1.66,3.36-2.45a15.92,15.92,0,0,0,2.7-2.61,11.19,11.19,0,0,0,1.88-3.45,20.56,20.56,0,0,0,1-5,13.07,13.07,0,0,0-.79-5.89,15.2,15.2,0,0,0-2.74-4.58,12,12,0,0,0-3.84-2.92A8.61,8.61,0,0,0,375.87,106.47Z"/><path class="cls-1" d="M437.31,168.61h-4c-1.22,0-2.67,0-4.35,0s-3.44,0-5.29,0-3.69,0-5.34,0-3.08,0-4.3,0h-4V167.3l6.37-2.79V109L410,106.3v-1.22h4c1.22,0,2.65,0,4.3,0s3.43,0,5.34,0,3.62,0,5.29,0,3.13,0,4.35,0h4v1.22L431.2,109v55.51l6.11,2.79Z"/><path class="cls-1" d="M498.48,104.9a4.78,4.78,0,0,1,0,1.31,6,6,0,0,0-2.83,3.4,28.44,28.44,0,0,0-1.53,6.85q-.53,4.32-.78,10.35t-.62,13.79c0,.29,0,.91,0,1.87s0,2.13,0,3.49v9.47q0,5.85-.09,13h-2.79l-38.14-48.18c-.29-.29-.55-.36-.79-.22a1.4,1.4,0,0,0-.52.74,2.22,2.22,0,0,0-.22.62,6.39,6.39,0,0,0,0,.91c0,.44,0,1.08,0,1.92s.05,2,.05,3.54q.17,9.51.82,16a75.84,75.84,0,0,0,1.71,10.6,27.18,27.18,0,0,0,2.31,6.42,12.11,12.11,0,0,0,2.75,3.49,9.75,9.75,0,0,0,3,1.74c1.05.35,2.1.76,3.14,1.22a2.91,2.91,0,0,1,0,.57,2,2,0,0,0,0,.39v.35H442.89v-.65a5,5,0,0,1,.09-.74,6.49,6.49,0,0,0,2.88-3.67,30.71,30.71,0,0,0,1.44-7.07c.32-3,.55-6.6.7-10.91s.36-9.34.65-15.1v-1.3c0-.7,0-1.58.05-2.62s0-2.21,0-3.49V109c-.29-.11-.76-.32-1.4-.61l-1.92-.87c-.75-.35-1.54-.73-2.35-1.14v-1.22h17.71q7.77,9.87,14,17.81c1.74,2.27,3.49,4.51,5.23,6.72s3.33,4.2,4.76,6,2.62,3.28,3.58,4.5,1.55,2,1.79,2.27q.69,1,1,.78c.17-.11.2-1,.08-2.79q-.34-7.15-.69-12.13c-.24-3.32-.54-6.11-.92-8.38a25.83,25.83,0,0,0-1.44-5.5,10.82,10.82,0,0,0-2.31-3.53,13.12,13.12,0,0,0-3.45-2.44q-2-1-4.89-2.23a.58.58,0,0,1,0-.39,2,2,0,0,0,0-.4v-.52q2.26.09,4.71.09H498c.32,0,.47,0,.44,0S498.43,104.9,498.48,104.9Z"/><path class="cls-1" d="M561.62,105.29a.42.42,0,0,1-.13.4,23,23,0,0,0-1.92,3.44,11,11,0,0,0-1.13,4.15c0,1.57,0,3.1-.05,4.58s0,2.84-.08,4.06,0,2.24,0,3v1.4h-2a48.49,48.49,0,0,0-1.14-5.54,32.13,32.13,0,0,0-2.09-5.76,23.28,23.28,0,0,0-3.14-4.93,10,10,0,0,0-4.28-3.06c-.7-.23-1.41-.43-2.14-.61a5,5,0,0,0-2-.09,2.75,2.75,0,0,0-1.52.83,2.78,2.78,0,0,0-.61,2v55.33l6.11,2.62v1.48h-4c-1.22,0-2.67,0-4.35,0s-3.44,0-5.29,0-3.69,0-5.34,0-3.09,0-4.31,0h-4v-1.4l6.37-2.7V108.92a2.82,2.82,0,0,0-.52-1.84,2.21,2.21,0,0,0-1.36-.74,4.72,4.72,0,0,0-1.87.13c-.7.18-1.43.38-2.19.61a9.67,9.67,0,0,0-4.23,3.06,24.4,24.4,0,0,0-3.1,4.93,34.74,34.74,0,0,0-2.13,5.76,41.7,41.7,0,0,0-1.18,5.54h-2v-4.45c0-1.22,0-2.58,0-4.06s-.08-3-.13-4.58a7.34,7.34,0,0,0-.31-2,14.84,14.84,0,0,0-.79-2.09c-.32-.7-.65-1.36-1-2a17.42,17.42,0,0,0-1-1.52.42.42,0,0,1-.13-.4q0-.21.39-.21h58.3Q561.58,105.08,561.62,105.29Z"/><path class="cls-1" d="M190.83,189.63c.31-.23.47-.33.62-.45s.26-.22.39-.33l-.09-.16-1.05.24c-.65.15-1-.14-1-.81a1.81,1.81,0,0,0-2.45-2l-.31.09a.56.56,0,0,1-.73-.34,2.11,2.11,0,0,0-.8-.66,11.59,11.59,0,0,0-1.17-.58c.23-.17.33-.2.37-.26s.2-.34.29-.51a3.1,3.1,0,0,0-.58-.21c-.14,0-.29.09-.44.1a9.57,9.57,0,0,1-1.31-.05c-.41-.07-.82-.31-1.18.13-.06.06-.29,0-.41,0-.28-.15-.54-.34-.84-.53l.71-.61c-.31-.16-.52-.28-.73-.37l-2-.74a1.68,1.68,0,0,1-1-1.39c-.05-.22.24-.52.39-.79-.48-.25-1.23-.11-1.59-.92h2.33a3.84,3.84,0,0,1-.17-.54c0-.22,0-.45,0-.68a4.8,4.8,0,0,1,.66.12c.74.24,1.47.51,2.21.75.11,0,.26,0,.42-.06a2.71,2.71,0,0,0-1.95-1.14,1.37,1.37,0,0,1-1.24-1.27c.48,0,1,0,1.42.09a.57.57,0,0,0,.75-.41c.14-.35.33-.67.56-1.14a2.29,2.29,0,0,1,.11.41c0,.57.43.58.8.66a2.13,2.13,0,0,0,.6-.09l-.27-1c0-.05-.11-.08-.14-.14s-.15-.32-.23-.48a.67.67,0,0,1,.56.23c.78,1.11,2,.64,3,.75.09,0,.31-.27.29-.37a.63.63,0,0,0-.36-.44,3.42,3.42,0,0,0-.84.05c-.23,0-.47,0-.7,0l-.1-.21,1.46-1.53a6.14,6.14,0,0,0-1-.52c-.23-.09-.63-.13-.77,0s-.64.6-.18,1c.09.09.11.26.17.39l-.12.18-1.09-.49.37-.78c-.38-.65-.36-.61.4-1a1,1,0,0,0,.38-.76c0-.4-.4-.45-.76-.33l-.59.23a7.66,7.66,0,0,1,.12-1.29c.25-.89.13-1.23-.79-1.82a10,10,0,0,1-.4.93c-.17.27-.37.65-.62.72-.69.18-.82.61-.89,1.22a10.62,10.62,0,0,1-.49,2,.66.66,0,0,1-.51.37,9.83,9.83,0,0,1-1.88-.09c-.62-.1-.66-.28-.28-.81a3.69,3.69,0,0,0,.26-.53l-1.64.3a1,1,0,0,1-1.22-.61,1,1,0,0,1,.35-1.33,3.59,3.59,0,0,1,1.33-.65,3,3,0,0,0,2.44-2.6,1.48,1.48,0,0,1,.77-.77,8,8,0,0,1,1.41-.43c-1-.17-1.22-.91-1.46-1.71a10.3,10.3,0,0,0-1-2.52c-1.12-1.8-2.29-3.58-3.53-5.3a3,3,0,0,1-.52-2.75c.45-1.63.9-3.26,1.39-4.88a3.17,3.17,0,0,0-.06-2.21.63.63,0,0,0-.71-.48c-3.15.11-6.29.19-9.44.28l-27.34.79c-.46,0-.93,0-1.51,0a1.92,1.92,0,0,0,.41-2.33c-.35-.68-.6-1.32.17-1.86-.54-.72-1-1.37-1.53-2l.1-.19c.51,0,1,0,1.53,0a3.76,3.76,0,0,0,1.26-.13c.52-.19.55-.57.14-.94a5.83,5.83,0,0,1-.7-.58,10.58,10.58,0,0,1-.64-1.08,6.73,6.73,0,0,1,1-.38c.81-.17.94-.31.62-1.1a1.92,1.92,0,0,1,.12-1.86c.22-.35.42-.71.62-1.07a7.8,7.8,0,0,0,1.11-5.23,1.35,1.35,0,0,1,.19-.73,5.31,5.31,0,0,1,2.51-2.55,4.25,4.25,0,0,0,1.73-1.61,16.2,16.2,0,0,1,1.57-1.87,8.08,8.08,0,0,0,.72-.83c.45-.67.32-1-.26-1.56a8.1,8.1,0,0,1-1.32-1.66c-.27-.45,0-.76.5-.73a13.52,13.52,0,0,1,1.42.22,1.3,1.3,0,0,0,1.66-.87c.3-.68.57-1.36.82-2,.18-.47.14-1-.44-1s-.86-.4-1.07-.92-.52-1.27-1.38-1.27c-.09,0-.2-.14-.26-.25a12.22,12.22,0,0,1-1-2.1,5.47,5.47,0,0,1-.19-2.27c0-.33.7-.61,1.11-.84s.46-.53.09-.83-.73-.55-1.1-.81a.86.86,0,0,1-.3-1.29,8.88,8.88,0,0,1,.89-1.2,1,1,0,0,0,.22-1.36c-.39-.61-.89-1.16-1.31-1.75a1.43,1.43,0,0,0-1.29-.55L86,96.73h-.79c0,1.22,0,2.33,0,3.43q-.24,10.16-.46,20.31a1,1,0,0,0,.21.69,17.66,17.66,0,0,1,4.33,7.1c2.09,5.41,3.51,11.08,6.39,16.17a.88.88,0,0,1-.41,1.37c-.62.26-.59.67-.43,1.16a8.6,8.6,0,0,1,.4,1,1.82,1.82,0,0,1,0,1.06c-.27.61-.7,1.14-.52,1.88,0,.1-.1.23-.15.35-.25.58-.51,1.17-.75,1.76-.39.95-.77,1.91-1.17,2.86a13.91,13.91,0,0,0-.75,1.68c-.29,1.12-.23,2.33-1,3.31a.63.63,0,0,0-.07.5A14.23,14.23,0,0,0,91.8,164a3.62,3.62,0,0,1,.49,2.09,8.14,8.14,0,0,1-1.87,4.08q-1.68,2.4-3.32,4.83a.85.85,0,0,0-.13.68c.38.84.83,1.66,1.28,2.55a6.76,6.76,0,0,0,.6-.55,3.24,3.24,0,0,1,3.13-1,8.57,8.57,0,0,0,1.43.07c1.75-.13,3.49-.29,5.24-.45a13.81,13.81,0,0,1,1.55-.16,7.78,7.78,0,0,1,2.22.3c2.32.83,4.61,1.76,6.91,2.66.26.1.52.21.79.3,1.06.36,2.1.79,3.18,1.06q3,.73,6.09,1.31a5,5,0,0,0,3.85-.4,3.54,3.54,0,0,1,2.05-.72c.26,0,.53-.35.79-.55-.22-.19-.42-.49-.67-.55a.73.73,0,0,1-.63-.94c.13-1.1.11-1.09-1-1.14-.17,0-.35-.2-.48-.35a.52.52,0,0,1,0-.33,1.1,1.1,0,0,1,.54,0,1.82,1.82,0,0,0,1.62-.17,2.27,2.27,0,0,1,.7-.34,1.59,1.59,0,0,0,1.46-1.28c.09-.37.31-.44.68-.32a3.45,3.45,0,0,0,.85,0,14,14,0,0,1,1.44.14c.07,0,.16.3.14.43a.62.62,0,0,1-.3.36,1.89,1.89,0,0,1-.57,0c0,.52,0,1,0,1.51s.3.64.75.45.87-.39,1.29-.61a1.15,1.15,0,0,1,1.16-.09,1.28,1.28,0,0,0,1.46-.15,2,2,0,0,1,.88-.36,1.86,1.86,0,0,1,.7.18,2.79,2.79,0,0,1-.29.71c-.3.42-.8.75-.94,1.21a2.35,2.35,0,0,1-1,1.64s0,.08,0,.15c1,.76,1.89.57,2.88-.26a8.23,8.23,0,0,0,.17,1.08c.11.34.21.82.44.92a1.09,1.09,0,0,0,1-.26,6.71,6.71,0,0,0,.88-1.41c.12-.22.14-.51.28-.72s.32-.14.49-.21c.06.16.21.35.16.47-.2.57-.47,1.11-.7,1.68a5.27,5.27,0,0,0-.18.71,2.14,2.14,0,0,0,.74.07c.45-.12.75-.09.91.41a.48.48,0,0,0,.37.26c.51,0,1,0,1.25-.57a7.3,7.3,0,0,0,.48-1.57c.1-.85,0-1.74.16-2.58s0-1.22-.69-1.52a4.22,4.22,0,0,0-1-.27,1.78,1.78,0,0,1-1.51-1.16c-.14-.37-.37-.69-.51-1-.47-1.17-1.9-1-2.56-1.82-.79.07-1.21-.5-1.7-.94s-.41-.78,0-1.11c.26,0,.51.18.68.11.59-.22.7-.15.71.5,0,.16.24.48.33.46a1.88,1.88,0,0,1,2.25,1.35c.06.13.36.3.44.26s.35-.34.31-.46a4.11,4.11,0,0,0-.54-1.23,1.13,1.13,0,0,1-.09-1.27c.46,1,1.35,1.72,1.38,2.91a1.18,1.18,0,0,0,.25.76,1,1,0,0,1,.32,1,.73.73,0,0,0,.32.63c1,.31,2.08.56,3.12.82a.61.61,0,0,0,.26,0l1.26-.26.09,1.34c0,.1,0,.2,0,.25a3.84,3.84,0,0,0-1-.27,1.55,1.55,0,0,0-1.37,2.19,2.83,2.83,0,0,1,.12,1.49,4.86,4.86,0,0,1-.8,1.36c-.38.55-.34.85.16,1.33a2.11,2.11,0,0,1,.39.58,4.52,4.52,0,0,0,.44,1,6,6,0,0,0,1.19,1,1.46,1.46,0,0,1,.62,1.59c-.07.44-.33.57-.75.38-.16-.08-.39-.18-.5-.12-.26.14-.49.3-.62-.06,0-.11.23-.32.37-.48s.37-.32.35-.39a2.06,2.06,0,0,0-.44-.5,3.16,3.16,0,0,1-.55-.47.92.92,0,0,0-1.57-.12,2,2,0,0,1-.79.4,2.42,2.42,0,0,1-.6.09c0,.71.6.83.86,1.22a3.86,3.86,0,0,0,3.27,1.54,5.55,5.55,0,0,1,2.87.7,1.65,1.65,0,0,0,1.05.27,1.79,1.79,0,0,1,1.89,1.16c.3.56.76.61,1.32.3.19-.11.46-.06.68-.13a16.45,16.45,0,0,0,1.72-.56,1.47,1.47,0,0,0,.48-.42l.86.18c0-.27.09-.53.11-.8,0-.12-.1-.27-.07-.38a5.33,5.33,0,0,1,.31-.64l.24.17a.8.8,0,0,0,1.21.18.66.66,0,0,0,.1-1.1,6.29,6.29,0,0,1-.59-1.08,7.05,7.05,0,0,0,1.27.09,4.55,4.55,0,0,0,1-.34l.72.39a4.41,4.41,0,0,1,.15-.89.61.61,0,0,1,.41-.36.74.74,0,0,1,.58.23.94.94,0,0,1-.7,1.42c-.4.09-.58.29-.47.69s.12,1,.74,1a2.13,2.13,0,0,0,1.7-1.91,6.41,6.41,0,0,1,0-.88l.22,0c.66,1.12,1.33,2.22,2,3.35a.64.64,0,0,1-.05.54.9.9,0,0,0,.27,1.31,1.31,1.31,0,0,0,1.11.13,20.66,20.66,0,0,0,2.07-1.21,1.58,1.58,0,0,0,.78-2c-.19,0-.36-.07-.52-.13-.49-.19-1-1-.74-1.27.4-.4.27-.75,0-1.14.45-.3.81-.47,1.21,0a.64.64,0,0,0,.55.18.63.63,0,0,0,.2-.55c-.17-.53-.44-1-.64-1.54a3.27,3.27,0,0,1-.11-.56c.2,0,.46-.17.58-.09.5.32.7,0,.8-.36s.37-.6.82-.65a1.27,1.27,0,0,0,.85-.45c.26-.47.58-.4,1-.36.19.37-.54.81.19,1.09.16-.17.33-.37.51-.55l.51-.52a5,5,0,0,1,.16,1.39c0,.56.21.7.74.52.79-.26,1-.11.83.79-.44,0-.9,0-1.34.09a2.32,2.32,0,0,0-.53.25,2.65,2.65,0,0,0,.44.54c.22.16.7.19.73.34.14.72.67.55,1.11.58a2.7,2.7,0,0,0,1.88-.33,2.38,2.38,0,0,1,.65-.16l-.31,1.38c1.08.59,2.18,1.13,3.45.25.22,1.16.36,2.39,2,2.35a3.18,3.18,0,0,0-.24.59c-.05.24-.15.58,0,.72s.47.15.71.14a12.34,12.34,0,0,0,1.27-.2,13.46,13.46,0,0,0-1,1.33,8.67,8.67,0,0,0-.51,1.31c.86.37,2.91-1.12,2.88-2.19a2.78,2.78,0,0,1,.07-.57c.17.15.35.28.5.43a1.86,1.86,0,0,1,.19.34c.48.84,1.26.92,1.79.12a.86.86,0,0,1,.79-.4c.44,0,.93,0,1.17-.52S191.75,189.77,190.83,189.63Z"/><path class="cls-1" d="M133.16,180.59c-1-.85-2.28-.87-3.21-1.4a7.64,7.64,0,0,1-1.48.45,2.63,2.63,0,0,0-1.4.57c-.47.38-.53.67,0,1a13.15,13.15,0,0,0,1.47.82c.58.31,1.17.61,1.74.94a3.47,3.47,0,0,0,2.07-.3.19.19,0,0,0,0-.12c-.09-.51.31-.59.64-.76C133.66,181.46,133.74,181.09,133.16,180.59Z"/><path class="cls-1" d="M185.33,167.65a1.67,1.67,0,0,1,1.81,0c.12.06.36.11.43,0a1.64,1.64,0,0,0,.41-.63c0-.08-.22-.3-.38-.35a12.86,12.86,0,0,0-1.46-.44,3.61,3.61,0,0,0-.66,0c0,.61-.48.53-.92.53C184.67,167.29,184.78,168,185.33,167.65Z"/><path class="cls-1" d="M182.48,176a3,3,0,0,0-1,.46c-.08.06.14.5.25.77a5.12,5.12,0,0,0,.25.53l.31-.13a12.26,12.26,0,0,0,.44-1.29C182.75,176.2,182.53,175.93,182.48,176Z"/><path class="cls-1" d="M185.56,168.9c-.06-.05-.26,0-.33.09a1.6,1.6,0,0,0-.52,1.42c.7-.17,1.13-.65,1.06-1.16A.5.5,0,0,0,185.56,168.9Z"/><path class="cls-1" d="M172.9,185.81c-.28.13-.53.29-.8.44l.27.37a3.64,3.64,0,0,0,.81,0c.16,0,.39-.18.41-.31a.66.66,0,0,0-.18-.55C173.34,185.66,173.06,185.74,172.9,185.81Z"/><path class="cls-1" d="M187.64,165.17l.88-.89-.16-.31a3.16,3.16,0,0,0-1,.38c-.12.1,0,.49,0,.75Z"/><path class="cls-1" d="M187.13,169.64l-.11-.14-1.52.85C186.3,170.67,186.71,170.45,187.13,169.64Z"/><path class="cls-1" d="M183.81,167.24s-.32-.2-.39-.16c-.41.3-.32.68.09,1.12C183.61,167.89,183.73,167.57,183.81,167.24Z"/></g></g></svg>