<svg xmlns="http://www.w3.org/2000/svg" viewBox="0 0 601 546.42"><defs><style>.cls-1{fill:#262b63;}.cls-2{fill:#d62326;}.cls-3{fill:#dfa726;}</style></defs><g id="Layer_2" data-name="Layer 2"><g id="Layer_1-2" data-name="Layer 1"><path class="cls-1" d="M595.3,523.46c1.78-1.28,2.65-1.87,3.48-2.51s1.48-1.25,2.22-1.88l-.48-.9c-2,.45-3.94.91-5.92,1.35-3.67.83-5.6-.8-5.39-4.56.46-8.34-5.78-13.33-13.76-11-.58.16-1.16.35-1.76.48-1.81.38-3,.12-4.06-1.89-.84-1.6-2.82-2.7-4.48-3.73-1.83-1.14-3.87-1.94-6.62-3.28,1.34-.9,1.87-1.08,2.12-1.45.61-.91,1.09-1.9,1.61-2.86a16.45,16.45,0,0,0-3.24-1.14c-.78-.12-1.65.51-2.48.51a45.87,45.87,0,0,1-7.33-.28c-2.35-.36-4.61-1.71-6.68.76-.28.34-1.63.12-2.28-.23-1.57-.83-3-1.89-4.71-3l4-3.42c-1.75-.88-2.89-1.58-4.12-2.05-3.74-1.43-7.52-2.8-11.29-4.16s-5.13-4.51-5.83-7.83c-.26-1.24,1.39-2.89,2.22-4.45-2.72-1.37-6.89-.61-8.93-5.16h13.05a17.93,17.93,0,0,1-.9-3c-.14-1.26-.07-2.54-.09-3.81a24,24,0,0,1,3.71.65c4.16,1.36,8.26,2.87,12.42,4.21.62.2,1.43-.18,2.36-.32a15.23,15.23,0,0,0-10.93-6.41,7.72,7.72,0,0,1-7-7.15,77.46,77.46,0,0,1,8,.54c2.22.36,3.42-.27,4.23-2.32s1.82-3.76,3.13-6.4a13.6,13.6,0,0,1,.62,2.29c-.12,3.2,2.43,3.3,4.48,3.7,1,.21,2.25-.31,3.38-.5-.51-1.8-1-3.6-1.55-5.38-.1-.3-.58-.47-.74-.78-.47-.87-.87-1.78-1.3-2.67a3.78,3.78,0,0,1,3.15,1.24c4.35,6.25,10.95,3.62,16.69,4.23.52.05,1.78-1.52,1.65-2.1a3.63,3.63,0,0,0-2-2.46c-1.48-.3-3.12.23-4.69.29-1.32,0-2.64-.11-4-.17l-.56-1.2,8.19-8.55a34.73,34.73,0,0,0-5.3-2.94c-1.32-.5-3.56-.7-4.36.06-1.51,1.41-3.58,3.38-1,5.86a6.17,6.17,0,0,1,.95,2.16l-.66,1-6.1-2.7c.66-1.42,1.33-2.83,2.08-4.41-2.15-3.64-2.05-3.44,2.25-5.63a5.23,5.23,0,0,0,2.13-4.23c-.22-2.28-2.26-2.52-4.25-1.85-.87.3-1.72.64-3.35,1.26.24-2.82.11-5.14.69-7.25,1.38-5,.75-6.89-4.47-10.17a40.46,40.46,0,0,1-2.24,5.17c-.92,1.54-2,3.68-3.44,4-3.88,1-4.6,3.44-5,6.89A62.11,62.11,0,0,1,528,423.17a3.94,3.94,0,0,1-2.91,2.12,57,57,0,0,1-10.53-.52c-3.5-.55-3.7-1.6-1.56-4.57a26.42,26.42,0,0,0,1.46-2.95l-9.21,1.66c-3.12.56-5.53-.34-6.86-3.4a5.8,5.8,0,0,1,2-7.49,20.22,20.22,0,0,1,7.45-3.61c8.22-1.66,11.92-7,13.74-14.66.41-1.71,2.54-3.43,4.29-4.31,2.43-1.21,5.26-1.63,7.92-2.39-5.68-1-6.84-5.09-8.18-9.62a58.72,58.72,0,0,0-5.86-14.11c-6.25-10.14-12.85-20.1-19.82-29.77-3.56-4.94-4.47-9.86-2.92-15.45,2.54-9.14,5.05-18.29,7.82-27.37a17.68,17.68,0,0,0-.36-12.45c-.8-2-1.7-2.76-4-2.68-17.66.63-35.32,1.09-53,1.6q-76.72,2.24-153.46,4.44c-2.63.08-5.26,0-8.53,0,3.76-4.16,4.68-8.48,2.34-13.06-2-3.82-3.41-7.44,1-10.44l-8.61-11.36.55-1.07c2.86,0,5.72.08,8.58,0,2.39-.09,4.95.08,7.11-.72,2.91-1.08,3-3.22.75-5.32-1.25-1.16-2.9-1.95-3.91-3.26a53.35,53.35,0,0,1-3.61-6.07,40.44,40.44,0,0,1,5.8-2.13c4.56-1,5.25-1.74,3.48-6.15-1.49-3.7-1.41-7.05.68-10.42,1.21-2,2.34-4,3.46-6,5.07-9.14,8.09-18.69,6.25-29.35-.22-1.28.46-2.85,1.07-4.12a29.72,29.72,0,0,1,14.06-14.3,23.91,23.91,0,0,0,9.72-9.06c2.4-3.83,5.82-7,8.8-10.48a48,48,0,0,0,4.08-4.64c2.5-3.81,1.8-5.63-1.47-8.78a46.19,46.19,0,0,1-7.41-9.31c-1.53-2.54-.16-4.28,2.83-4.09A73.56,73.56,0,0,1,349,108.7c4.76.81,7.42-.48,9.37-4.91,1.66-3.78,3.16-7.63,4.61-11.5,1-2.6.73-5.4-2.5-5.6-3.69-.23-4.83-2.26-6-5.15-1.4-3.49-2.95-7.12-7.74-7.17-.5,0-1.16-.79-1.45-1.36-2-3.89-4.46-7.66-5.63-11.79a31,31,0,0,1-1.08-12.78c.28-1.86,3.92-3.42,6.26-4.71,2.71-1.5,2.57-3,.48-4.68s-4.09-3.06-6.19-4.52c-2.77-1.94-3.41-4.43-1.64-7.26a43.36,43.36,0,0,1,5-6.72c2.24-2.38,2.9-5,1.21-7.61-2.2-3.44-5-6.52-7.37-9.83C334.45.59,332.14,0,329.08,0Q168.06,1,7,1.94H2.6c0,6.83.12,13,0,19.22q-1.28,57-2.58,114c0,1.31.3,3.11,1.17,3.9C13.23,150,19.85,164.17,25.53,178.91c11.69,30.36,19.67,62.2,35.87,90.8,1.86,3.28.93,6.33-2.32,7.69-3.49,1.47-3.32,3.75-2.4,6.49.67,1.95,1.83,3.77,2.25,5.76s.79,4.26,0,5.91C57.44,299,55,302,56.07,306.14c.14.54-.57,1.28-.85,1.94-1.42,3.3-2.86,6.58-4.23,9.89-2.21,5.35-4.32,10.74-6.57,16.08-1.33,3.16-3.32,6.13-4.18,9.4-1.63,6.28-1.33,13.09-5.58,18.62a3.55,3.55,0,0,0-.41,2.8c1.56,5,2.69,10.19,5.15,14.68a20.37,20.37,0,0,1,2.72,11.75c-.62,9-5.61,15.91-10.51,22.91Q22.21,427.68,13,441.3a4.75,4.75,0,0,0-.69,3.83c2.13,4.74,4.61,9.33,7.16,14.34a34.41,34.41,0,0,0,3.39-3.12c4.65-5.63,10.81-6.48,17.55-5.77a45.74,45.74,0,0,0,8,.37c9.82-.72,19.62-1.61,29.43-2.48,2.91-.26,5.82-1,8.7-.9,4.19.19,8.6.28,12.47,1.67,13,4.67,25.87,9.89,38.78,14.9,1.47.57,2.93,1.19,4.43,1.7,5.94,2,11.79,4.45,17.87,5.94q17,4.17,34.2,7.4c7.31,1.37,14.74,2.11,21.62-2.26,3.47-2.2,7-4.24,11.5-4.05,1.44.06,3-2,4.45-3.08-1.25-1.08-2.36-2.75-3.79-3.11-3-.76-3.88-2.3-3.54-5.24.71-6.21.61-6.14-5.59-6.43-1,0-2-1.12-2.69-1.94a2.65,2.65,0,0,1,0-1.88,6.18,6.18,0,0,1,3,0c3.26,1.3,6.2.62,9.1-1,1.27-.7,2.53-1.73,3.89-1.91,4.42-.59,7.07-2.92,8.19-7.17.56-2.08,1.74-2.49,3.87-1.8,1.42.46,3.15-.08,4.73,0a72.64,72.64,0,0,1,8.09.79c.42.07.94,1.65.79,2.41a3.27,3.27,0,0,1-1.69,2c-.79.37-1.85.18-3.18.26,0,2.93-.09,5.7,0,8.47s1.73,3.6,4.22,2.51,4.91-2.15,7.25-3.43c2.16-1.18,4.1-1.64,6.5-.46a7.23,7.23,0,0,0,8.2-.88,10.9,10.9,0,0,1,5-2c1.23-.18,2.6.64,3.92,1a18.18,18.18,0,0,1-1.63,4c-1.68,2.35-4.51,4.24-5.27,6.8-1.14,3.8-2.15,7.24-5.85,9.24-.13.07-.09.44-.15.84,5.39,4.27,10.62,3.16,16.2-1.5a47.25,47.25,0,0,0,1,6.1c.58,1.88,1.13,4.58,2.47,5.17s4.37-.21,5.54-1.46c2.09-2.22,3.42-5.19,4.92-7.93.69-1.27.79-2.88,1.59-4,.48-.69,1.8-.81,2.74-1.19.34.9,1.17,2,.93,2.66-1.16,3.19-2.67,6.24-3.93,9.39a29.69,29.69,0,0,0-1,4c1.39.15,2.89.72,4.14.38,2.51-.7,4.19-.52,5.09,2.27A2.85,2.85,0,0,0,317,486.2c2.85.18,5.79.07,7-3.22a41.18,41.18,0,0,0,2.68-8.83c.61-4.79.14-9.74.94-14.49.73-4.3.15-6.81-3.87-8.5a24.74,24.74,0,0,0-5.62-1.53c-4.08-.63-6.94-2.61-8.5-6.54-.8-2-2.07-3.87-2.88-5.9-2.61-6.52-10.65-5.31-14.37-10.21-4.39.44-6.8-2.77-9.53-5.27-2.36-2.16-2.27-4.38,0-6.22,1.47.28,2.85,1,3.82.64,3.34-1.24,3.91-.86,4,2.76,0,.94,1.35,2.71,1.83,2.63,6.48-1.14,10.29,1.82,12.67,7.54.31.75,2,1.72,2.43,1.48.85-.45,2-1.91,1.75-2.6a23.89,23.89,0,0,0-3-6.9,6.32,6.32,0,0,1-.55-7.13c2.61,5.46,7.62,9.66,7.74,16.36a6.93,6.93,0,0,0,1.42,4.28,5.8,5.8,0,0,1,1.82,5.51c-.19,1.1.85,3.29,1.76,3.57,5.79,1.75,11.69,3.12,17.56,4.57a3.48,3.48,0,0,0,1.43-.21l7.06-1.44c.18,2.51.37,5,.52,7.54a6.26,6.26,0,0,1-.18,1.38c-2-.57-3.83-1.57-5.59-1.49-6.47.26-9.76,6-7.72,12.27a15.94,15.94,0,0,1,.72,8.34c-.7,2.76-2.86,5.18-4.54,7.65-2.1,3.08-1.9,4.75.93,7.49a11.59,11.59,0,0,1,2.16,3.22c.9,1.85,1.2,4.14,2.48,5.61a33.52,33.52,0,0,0,6.68,5.57c3.33,2.23,4,5.31,3.49,8.91-.38,2.49-1.82,3.21-4.18,2.14-.9-.4-2.2-1-2.84-.66-1.43.78-2.75,1.68-3.46-.36-.2-.58,1.28-1.77,2-2.65s2.13-1.81,2-2.19a9.55,9.55,0,0,0-2.43-2.8c-1-.93-2.36-1.58-3.08-2.67-2.31-3.51-5.89-3.71-8.8-.65-1.09,1.13-2.9,1.66-4.46,2.23A15.89,15.89,0,0,1,315,506c-.21,4,3.33,4.64,4.78,6.82,4.45,6.68,11.15,8.12,18.4,8.65,5.58.4,11.15.61,16.09,4a9.64,9.64,0,0,0,5.92,1.52c5.39-.58,8.27,2.16,10.59,6.48,1.68,3.13,4.26,3.43,7.38,1.69,1.09-.6,2.61-.35,3.86-.72a100.79,100.79,0,0,0,9.66-3.14c1.25-.5,2.15-1.87,2.67-2.34l4.85,1c.21-1.5.49-3,.59-4.48,0-.7-.55-1.52-.36-2.13a25.62,25.62,0,0,1,1.72-3.62,13.33,13.33,0,0,1,1.32,1c2,2.38,4.65,2.83,6.83,1s2.8-3.7.58-6.16c-1.29-1.43-1.94-3.43-3.36-6.06,3.13.26,5.17.71,7.14.51,1.63-.17,3.19-1.11,5.43-1.95l4.08,2.24c.31-2.11.29-3.68.83-5a3.46,3.46,0,0,1,2.31-2c1.08-.08,2.83.47,3.22,1.27,1.82,3.76.14,7.06-3.92,8-2.23.5-3.22,1.61-2.62,3.85.64,2.4.65,5.54,4.14,5.55,4.39,0,9.78-6.37,9.54-10.77a45.2,45.2,0,0,1,.24-4.93l1.22-.15c3.71,6.25,7.48,12.48,11.07,18.8a3.44,3.44,0,0,1-.29,3c-2.2,3.09-.51,5.74,1.52,7.36a7.22,7.22,0,0,0,6.23.72c4.08-1.8,7.75-4.51,11.64-6.76,4.44-2.58,5.63-6.33,4.37-11.09a20.71,20.71,0,0,1-2.94-.73c-2.71-1.08-5.53-5.69-4.15-7.1,2.26-2.29,1.53-4.22-.14-6.45,2.5-1.67,4.53-2.59,6.79.11.63.75,2.4,1.38,3.08,1a3.36,3.36,0,0,0,1.12-3.07c-1-2.94-2.44-5.72-3.59-8.61a16.56,16.56,0,0,1-.61-3.18c1.11-.19,2.57-.92,3.27-.48,2.79,1.77,3.93.18,4.46-2.05.62-2.61,2.1-3.35,4.61-3.66,1.71-.21,4-1.17,4.75-2.52,1.48-2.6,3.29-2.23,5.36-2,1,2-3.05,4.5,1.07,6.11.9-1,1.86-2.07,2.86-3.12s1.92-1.94,2.88-2.91a27.9,27.9,0,0,1,.85,7.83c.07,3.13,1.23,3.92,4.17,2.92,4.43-1.5,5.4-.65,4.66,4.45-2.47.14-5,.17-7.53.49a10.66,10.66,0,0,0-2.94,1.4,13.93,13.93,0,0,0,2.46,3c1.24.87,3.91,1.05,4.08,1.91.8,4,3.79,3.09,6.25,3.25,3.64.23,7.29.47,10.55-1.84.7-.5,1.79-.46,3.65-.89-.66,2.89-1.16,5.11-1.75,7.71C532,513,538.16,516,545.32,511c1.2,6.55,2,13.44,11.41,13.23a19.31,19.31,0,0,0-1.4,3.31c-.28,1.35-.82,3.22-.18,4s2.6.86,4,.79c2.09-.11,4.16-.62,7.15-1.1-2.25,3-4.15,5.08-5.47,7.47a55.39,55.39,0,0,0-2.87,7.36c4.86,2,16.37-6.3,16.18-12.32a19.21,19.21,0,0,1,.4-3.18,36.48,36.48,0,0,1,2.84,2.41,10.35,10.35,0,0,1,1,1.92c2.72,4.71,7.09,5.15,10.06.66,1.26-1.89,2.54-2.07,4.41-2.24,2.47-.22,5.25,0,6.59-3C601.06,526.86,600.48,524.26,595.3,523.46Z"/><path class="cls-1" d="M271.59,472.69c-5.41-4.76-12.85-4.87-18-7.85-3.44,1.1-5.82,2.29-8.29,2.55a14.49,14.49,0,0,0-7.85,3.2c-2.65,2.11-3,3.76-.23,5.77,2.52,1.85,5.47,3.1,8.24,4.59,3.25,1.75,6.56,3.4,9.75,5.27,1.57.92,10.65-.21,11.61-1.7a1,1,0,0,0,.2-.67c-.51-2.86,1.76-3.28,3.56-4.25C274.35,477.56,274.81,475.53,271.59,472.69Z"/><path class="cls-1" d="M564.44,400.08c3.88-2.14,6.77-1.68,10.18.12.69.37,2,.63,2.41.26a8.72,8.72,0,0,0,2.27-3.55c.13-.42-1.23-1.66-2.11-2a79.64,79.64,0,0,0-8.19-2.47,18.13,18.13,0,0,0-3.7-.16c0,3.46-2.7,3-5.15,3C560.73,398.05,561.38,401.76,564.44,400.08Z"/><path class="cls-1" d="M548.48,446.64a17.74,17.74,0,0,0-5.73,2.57c-.42.34.83,2.86,1.41,4.34.39,1,1,2,1.43,3l1.76-.77c.85-2.4,1.81-4.78,2.46-7.23C550,448,548.72,446.56,548.48,446.64Z"/><path class="cls-1" d="M565.77,407.05a2.05,2.05,0,0,0-1.88.51c-1.93,2.16-3.56,4.5-2.93,8,3.91-.92,6.36-3.65,6-6.47A3.17,3.17,0,0,0,565.77,407.05Z"/><path class="cls-1" d="M494.68,502c-1.56.68-3,1.61-4.5,2.44l1.5,2.08a23.77,23.77,0,0,0,4.55-.08c.9-.18,2.19-1,2.32-1.74a3.92,3.92,0,0,0-1-3.14C497.12,501.17,495.58,501.63,494.68,502Z"/><path class="cls-1" d="M577.43,386.12l4.92-5-.88-1.73c-1.85.66-4,1-5.41,2.13-.68.55,0,2.76.07,4.22Z"/><path class="cls-1" d="M574.55,411.2l-.61-.78-8.52,4.77C569.92,417,572.21,415.77,574.55,411.2Z"/><path class="cls-1" d="M555.93,397.77c0-.13-1.83-1.15-2.18-.89-2.31,1.66-1.83,3.77.46,6.29C554.82,401.38,555.48,399.6,555.93,397.77Z"/><circle class="cls-2" cx="236" cy="308.29" r="34"/><path id="path4650" class="cls-3" d="M234.68,332c-1.75-1.72-2.65-3.36-2.5-4.57,0-.25,0-.46,0-.46a5.31,5.31,0,0,0-.73.34,2.25,2.25,0,0,1-1.9.38c-.93-.29-1.75-1.53-2.25-3.42l-.22-.79,1.25.07c2.78.16,4.37-.85,4.71-3l.08-.53h-1c-1.07,0-1.48-.2-1.91-.93a1.41,1.41,0,0,1,0-1.54,1.87,1.87,0,0,1,1.84-.92c.57,0,.75-.05.75-.2a5.54,5.54,0,0,0-1.86-2.27,6.89,6.89,0,0,0-4.13-1.51c-1.33,0-1.94.23-2.22.86a5.92,5.92,0,0,0,0,3.07l.22.72-.56.16a4.61,4.61,0,0,1-5.14-1.54,9.06,9.06,0,0,1-2.13-6.56c.15-3.43,1.81-5.71,4.55-6.29a9.37,9.37,0,0,1,6.78,1.95,15.7,15.7,0,0,1,4.17,6c.55,1.26.91,1.71.91,1.14,0-.13-.34-1.42-.75-2.86a80.38,80.38,0,0,1-1.93-8.28c-.89-6.55.35-11.62,4.25-16.53l.86-1c4.44,4.45,6.28,11.15,5.27,17.73a71.2,71.2,0,0,1-1.76,7.51c-.41,1.45-.74,2.73-.74,2.86,0,.47.37.19.75-.59a24.55,24.55,0,0,1,3.32-5c2.08-2.36,3.29-3,5.58-3a6,6,0,0,1,4.93,2,6.91,6.91,0,0,1,1.74,4.83,8.13,8.13,0,0,1-3.43,6.89,5.63,5.63,0,0,1-3.25.8l-.69-.09V316a4.26,4.26,0,0,0-.36-2.28,2,2,0,0,0-2.24-1.38,5.91,5.91,0,0,0-3.46,1.48,9.9,9.9,0,0,0-2.65,2.6c0,.16.22.2.94.2,1.38,0,2.16.6,2.16,1.66s-.7,1.73-2.16,1.73c-.9,0-.94,0-.94.34a5.74,5.74,0,0,0,1.52,2.48,4.28,4.28,0,0,0,3.09,1,5.14,5.14,0,0,1,1.21.09,10.91,10.91,0,0,1-.83,2.15c-.75,1.47-1.81,2.15-2.82,1.81a6.52,6.52,0,0,1-1-.5,2.9,2.9,0,0,0-.63-.34,1.45,1.45,0,0,0-.15.7,7,7,0,0,1-2,3.92,6.55,6.55,0,0,1-1.31,1.3,6.43,6.43,0,0,1-1.23-1Z"/></g></g></svg>