<svg xmlns="http://www.w3.org/2000/svg" viewBox="0 0 187.64 44.76"><defs><style>.cls-1{fill:#d62326;}</style></defs><g id="Layer_2" data-name="Layer 2"><g id="Layer_1-2" data-name="Layer 1"><path class="cls-1" d="M0,29.13c0-.82.1-2.3.31-4.45a31.39,31.39,0,0,1,1.84-7.51A30.75,30.75,0,0,1,7.82,8Q12,3.07,20.24,0a5.91,5.91,0,0,1,.46,1.53,4.6,4.6,0,0,0,.76,1.84A25.41,25.41,0,0,0,8,13.49a.77.77,0,0,0,0,1.23A1,1,0,0,0,9.2,15a15.68,15.68,0,0,1,6.44-1.23,15.34,15.34,0,0,1,11,4.44,14.6,14.6,0,0,1,4.6,10.89,14.92,14.92,0,0,1-4.6,11.19,15.34,15.34,0,0,1-11,4.44A15.17,15.17,0,0,1,4.45,40.32,14.78,14.78,0,0,1,0,29.43Zm43.54-.31c0-.81.1-2.3.3-4.45a32.38,32.38,0,0,1,1.84-7.51,29.27,29.27,0,0,1,5.68-9Q55.5,3.07,63.77,0a5.22,5.22,0,0,1,.46,1.53A4.62,4.62,0,0,0,65,3.37,25.41,25.41,0,0,0,51.51,13.49a.77.77,0,0,0,0,1.23,1,1,0,0,0,1.23.31,15.68,15.68,0,0,1,6.44-1.23,15.59,15.59,0,0,1,11,4.29,14.07,14.07,0,0,1,4.6,10.73,15.38,15.38,0,0,1-4.6,11.34,15,15,0,0,1-11,4.6A14.92,14.92,0,0,1,48,40.16a15.3,15.3,0,0,1-4.44-11Z"/><path class="cls-1" d="M144.1,15.94c0,.82-.1,2.3-.3,4.45A32.14,32.14,0,0,1,142,27.9,29.19,29.19,0,0,1,136.28,37q-4.14,4.75-12.41,7.81a5.13,5.13,0,0,1-.46-1.53,4.9,4.9,0,0,0-.77-1.84,25.31,25.31,0,0,0,13.49-10.12.76.76,0,0,0,0-1.22,1,1,0,0,0-1.23-.31A15.68,15.68,0,0,1,128.46,31a15.27,15.27,0,0,1-11-4.45,14.53,14.53,0,0,1-4.6-10.88,14.9,14.9,0,0,1,4.6-11.19,15.27,15.27,0,0,1,11-4.45,14.92,14.92,0,0,1,11.2,4.6,15.31,15.31,0,0,1,4.44,11Zm43.54,0c0,.82-.1,2.3-.31,4.45a31.64,31.64,0,0,1-1.84,7.51A29,29,0,0,1,179.82,37q-4.14,4.75-12.42,7.81a5.44,5.44,0,0,1-.46-1.53,4.87,4.87,0,0,0-.76-1.84,25.35,25.35,0,0,0,13.49-10.12.76.76,0,0,0,0-1.22,1,1,0,0,0-1.23-.31A15.68,15.68,0,0,1,172,31a15.27,15.27,0,0,1-11-4.45,14.53,14.53,0,0,1-4.6-10.88A14.9,14.9,0,0,1,161,4.45,15.27,15.27,0,0,1,172,0a14.88,14.88,0,0,1,11.19,4.6,15.28,15.28,0,0,1,4.45,11Z"/></g></g></svg>